<svg xmlns="http://www.w3.org/2000/svg" width="286" height="76" viewBox="0 0 286 76">
  <g id="Group_40576" data-name="Group 40576" transform="translate(-817 -4861)">
    <rect id="Rectangle_63028" data-name="Rectangle 63028" width="286" height="76" rx="3" transform="translate(817 4861)" fill="red"/>
    <g id="YouTube_Logo_2017" transform="translate(887.833 4883.783)">
      <g id="Group_40578" data-name="Group 40578">
        <path id="Path_52220" data-name="Path 52220" d="M45.755,5.327a5.648,5.648,0,0,0-3.977-3.976C38.292.4,24.259.4,24.259.4s-14.033.029-17.52.98A5.648,5.648,0,0,0,2.763,5.356c-1.055,6.2-1.464,15.635.029,21.583a5.648,5.648,0,0,0,3.977,3.977c3.487.951,17.52.951,17.52.951s14.033,0,17.52-.951a5.648,5.648,0,0,0,3.976-3.977C46.9,20.735,47.239,11.3,45.755,5.327Z" fill="red"/>
        <path id="Path_52220_-_Outline" data-name="Path 52220 - Outline" d="M24.258-.1h0c.576,0,14.14.011,17.651.969A6.169,6.169,0,0,1,46.238,5.2l0,.01c1.505,6.059,1.157,15.564.036,21.82l-.01.042A6.169,6.169,0,0,1,41.938,31.4c-3.51.957-17.075.968-17.65.968s-14.14-.011-17.651-.969a6.169,6.169,0,0,1-4.328-4.328l0-.009a44.227,44.227,0,0,1-.985-10.826A73.937,73.937,0,0,1,2.27,5.272l.01-.047A6.169,6.169,0,0,1,6.609.9C10.118-.06,23.682-.1,24.258-.1ZM45.271,5.453a5.166,5.166,0,0,0-3.623-3.619C38.27.912,24.448.9,24.26.9c-.15,0-14.007.04-17.389.962a5.166,5.166,0,0,0-3.619,3.6c-1.07,6.3-1.4,15.651.024,21.348A5.166,5.166,0,0,0,6.9,30.433c3.384.923,17.249.934,17.389.934s14.006-.011,17.388-.933a5.166,5.166,0,0,0,3.62-3.6C46.4,20.678,46.739,11.37,45.271,5.453Z" fill="#fff"/>
        <path id="Path_52221" data-name="Path 52221" d="M64.2,45.086l11.641-6.743L64.2,31.6Z" transform="translate(-44.407 -22.209)" fill="#fff"/>
      </g>
      <g id="Group_40577" data-name="Group 40577" transform="translate(51.144 1.639)">
        <path id="Path_52222" data-name="Path 52222" d="M188.82,34.566a4.888,4.888,0,0,1-1.9-2.8,18.375,18.375,0,0,1-.547-5.043V23.875a16.44,16.44,0,0,1,.634-5.1,4.971,4.971,0,0,1,2.017-2.8,6.625,6.625,0,0,1,3.573-.893,6.018,6.018,0,0,1,3.487.893,5.211,5.211,0,0,1,1.931,2.8,17.273,17.273,0,0,1,.605,5.071V26.7a17.061,17.061,0,0,1-.605,5.043,5.063,5.063,0,0,1-1.931,2.8,6.592,6.592,0,0,1-3.6.893A6.435,6.435,0,0,1,188.82,34.566Zm4.985-3.083a9.2,9.2,0,0,0,.375-3.141V22.2a8.93,8.93,0,0,0-.375-3.083,1.329,1.329,0,0,0-1.3-.98,1.3,1.3,0,0,0-1.268.98,9.041,9.041,0,0,0-.375,3.083v6.138a10.192,10.192,0,0,0,.346,3.141,1.29,1.29,0,0,0,1.3.951A1.336,1.336,0,0,0,193.8,31.483Zm63.163-4.7v1.009l.115,2.853a2.867,2.867,0,0,0,.461,1.383,1.582,1.582,0,0,0,2.449-.346,6.642,6.642,0,0,0,.4-2.565l3.832.231a4.69,4.69,0,0,1,.029.692,5.142,5.142,0,0,1-1.5,4.063,6.1,6.1,0,0,1-4.207,1.354c-2.19,0-3.717-.692-4.582-2.046s-1.325-3.487-1.325-6.339V23.587c.1-4.9.96-8.486,6.022-8.5a6.166,6.166,0,0,1,3.487.836,4.524,4.524,0,0,1,1.729,2.593,18.19,18.19,0,0,1,.49,4.87v3.371h-7.406Zm.576-8.3a2.742,2.742,0,0,0-.461,1.354c-.086.634-.115,2.882-.115,2.882v1.412h3.227V22.723c0,1.412-.029-2.219-.115-2.882a2.653,2.653,0,0,0-.461-1.383,1.323,1.323,0,0,0-1.037-.4A1.345,1.345,0,0,0,257.544,18.487Zm-79.5,7.924L173,8.2h4.409s2.06,9.134,2.766,13.428h.115c.8-4.559,2.824-13.428,2.824-13.428h4.409l-5.1,18.182v8.731h-4.351v-8.7Z" transform="translate(-173 -7.191)" fill="#fff"/>
        <path id="A" d="M281.958,33.4V53.081H278.5l-.375-2.42h-.086A4.563,4.563,0,0,1,273.8,53.4c-3.392-.009-3.769-2.882-3.8-5.3V33.4h4.438V47.836a4.285,4.285,0,0,0,.288,1.873c.409.8,1.47.6,2.046.2a2.305,2.305,0,0,0,.778-.893V33.4Z" transform="translate(-242.049 -25.13)" fill="#fff"/>
        <path id="Path_52223" data-name="Path 52223" d="M320.84,9.282h-4.409V32.651h-4.322V9.282H307.7V5.709h13.111V9.282Zm25.329,6.829a5.078,5.078,0,0,0-1.3-2.709,3.529,3.529,0,0,0-2.478-.836,4.063,4.063,0,0,0-2.276.692,4.744,4.744,0,0,0-1.643,1.815h-.029V4.7h-4.265V32.622h3.66l.461-1.873h.086a4.034,4.034,0,0,0,1.527,1.585,4.686,4.686,0,0,0,2.276.576,3.511,3.511,0,0,0,3.314-2.075,15.113,15.113,0,0,0,1.066-6.455V21.269A26.4,26.4,0,0,0,346.168,16.111Zm-4.063,8.039a25.273,25.273,0,0,1-.173,3.371,3.522,3.522,0,0,1-.605,1.729,1.394,1.394,0,0,1-1.124.519,1.945,1.945,0,0,1-1.758-1.037V17.552a2.672,2.672,0,0,1,.778-1.325,1.413,1.413,0,0,1,2.219,0,4.124,4.124,0,0,1,.519,1.787c.086.836.144,2.017.144,3.573Z" transform="translate(-268.886 -4.7)" fill="#fff"/>
        <path id="Path_52224" data-name="Path 52224" d="M281.958,33.4V53.081H278.5l-.375-2.42h-.086A4.563,4.563,0,0,1,273.8,53.4c-3.392-.009-3.769-2.882-3.8-5.3V33.4h4.438V47.836a4.285,4.285,0,0,0,.288,1.873c.409.8,1.47.6,2.046.2a2.305,2.305,0,0,0,.778-.893V33.4Z" transform="translate(-219.314 -25.13)" fill="#fff"/>
      </g>
    </g>
  </g>
</svg>
