<svg xmlns="http://www.w3.org/2000/svg" xmlns:xlink="http://www.w3.org/1999/xlink" width="286" height="76" viewBox="0 0 286 76">
  <defs>
    <clipPath id="clip-path">
      <rect id="Rectangle_61690" data-name="Rectangle 61690" width="36" height="36" transform="translate(284 -3542.842)" fill="#fff" stroke="#707070" stroke-width="1"/>
    </clipPath>
    <linearGradient id="linear-gradient" x1="-133.91" y1="3992.165" x2="-133.91" y2="4020.388" gradientUnits="objectBoundingBox">
      <stop offset="0" stop-color="#6ebf61"/>
      <stop offset="0.231" stop-color="#50a557"/>
      <stop offset="0.522" stop-color="#2a904f"/>
      <stop offset="0.812" stop-color="#50a557"/>
      <stop offset="1" stop-color="#6ebf63"/>
    </linearGradient>
  </defs>
  <g id="Group_40547" data-name="Group 40547" transform="translate(-817 -4861)">
    <rect id="Rectangle_63028" data-name="Rectangle 63028" width="286" height="76" rx="3" transform="translate(817 4861)" fill="#6ebf61"/>
    <g id="Mask_Group_428" data-name="Mask Group 428" transform="translate(598.476 8424.842)" clip-path="url(#clip-path)">
      <g id="whatsapp" transform="translate(285.507 -3541.493)">
        <path id="Path_50970" data-name="Path 50970" d="M16.745,29.721a13.559,13.559,0,0,1-7.47-2.242l-5.22,1.668L5.747,24.1a13.569,13.569,0,1,1,10.99,5.618h.008ZM16.745,0A16.154,16.154,0,0,0,2.914,24.486L0,33.145,8.94,30.28A16.146,16.146,0,1,0,16.745,0Z" transform="translate(-0.001)" fill="#fefefe"/>
        <path id="Path_50971" data-name="Path 50971" d="M27.644,11.41a13.566,13.566,0,0,0-10.99,21.533l-1.692,5.044,5.219-1.668a13.575,13.575,0,1,0,7.47-24.908h-.008Z" transform="translate(-10.9 -8.84)" fill="url(#linear-gradient)"/>
        <path id="Path_50972" data-name="Path 50972" d="M43.426,39.664c-.263-.63-.463-.654-.862-.671q-.227-.015-.455-.016a1.97,1.97,0,0,0-1.389.487,4.335,4.335,0,0,0-1.389,3.3,7.759,7.759,0,0,0,1.612,4.094c.2.263,2.77,4.317,6.76,5.97,3.12,1.293,4.046,1.173,4.757,1.021a3.828,3.828,0,0,0,2.666-1.915,3.369,3.369,0,0,0,.231-1.884c-.1-.168-.359-.263-.758-.463s-2.338-1.157-2.706-1.285a.758.758,0,0,0-.973.3,16.647,16.647,0,0,1-1.062,1.4.858.858,0,0,1-.958.152A10.008,10.008,0,0,1,45.717,48.2a12.08,12.08,0,0,1-2.2-2.737c-.232-.4-.024-.631.159-.846.2-.248.391-.423.591-.655a2.379,2.379,0,0,0,.439-.623.81.81,0,0,0-.056-.734c-.1-.2-.894-2.147-1.221-2.937Z" transform="translate(-30.473 -30.199)" fill="#fefefe"/>
      </g>
    </g>
    <g id="Add_WhatsApp" data-name="Add WhatsApp" transform="translate(757.153 4639.948)" style="isolation: isolate">
      <g id="Group_40531" data-name="Group 40531" style="isolation: isolate">
        <path id="Path_52183" data-name="Path 52183" d="M166.442,249.251H169.3l1.657,9.217c.312,1.872.624,3.768.936,5.664h.1c.384-1.9.792-3.792,1.2-5.664l2.28-9.217h2.472l2.28,9.217c.408,1.847.792,3.744,1.2,5.664h.121c.288-1.92.6-3.817.888-5.664l1.68-9.217h2.664l-3.48,17.689h-3.433l-2.376-9.816c-.312-1.393-.576-2.713-.816-4.057h-.1c-.264,1.344-.552,2.664-.84,4.057L173.4,266.94h-3.361Z" fill="#fff"/>
        <path id="Path_52184" data-name="Path 52184" d="M189.434,247.811h2.76v5.064l-.12,2.616a6.147,6.147,0,0,1,4.273-2.088c2.808,0,4.056,1.872,4.056,5.233v8.3h-2.76v-7.968c0-2.281-.672-3.193-2.232-3.193-1.224,0-2.065.624-3.217,1.8v9.36h-2.76Z" fill="#fff"/>
        <path id="Path_52185" data-name="Path 52185" d="M203.57,263.437c0-2.833,2.4-4.3,7.9-4.9-.024-1.536-.576-2.881-2.52-2.881A7.251,7.251,0,0,0,205.13,257l-1.032-1.872a10.111,10.111,0,0,1,5.328-1.729c3.288,0,4.8,2.088,4.8,5.593v7.944H211.97l-.216-1.511h-.1a6.567,6.567,0,0,1-4.2,1.824A3.647,3.647,0,0,1,203.57,263.437Zm7.9.1v-3.24c-3.912.456-5.232,1.464-5.232,2.952,0,1.3.888,1.824,2.064,1.824A4.649,4.649,0,0,0,211.466,263.532Z" fill="#fff"/>
        <path id="Path_52186" data-name="Path 52186" d="M218.162,262.62v-6.673h-1.92v-2.063l2.064-.145.312-3.648h2.3v3.648h3.432v2.208h-3.432v6.7c0,1.584.552,2.4,1.92,2.4a3.931,3.931,0,0,0,1.416-.312l.5,2.04a8.41,8.41,0,0,1-2.592.481C219.194,267.253,218.162,265.4,218.162,262.62Z" fill="#fff"/>
        <path id="Path_52187" data-name="Path 52187" d="M225.578,265.429l1.3-1.777a5.982,5.982,0,0,0,3.744,1.512c1.585,0,2.329-.768,2.329-1.776,0-1.2-1.489-1.728-2.9-2.28-1.776-.672-3.72-1.608-3.72-3.84,0-2.208,1.776-3.865,4.7-3.865a6.875,6.875,0,0,1,4.273,1.561l-1.3,1.7a4.925,4.925,0,0,0-2.928-1.152c-1.464,0-2.136.719-2.136,1.631,0,1.128,1.3,1.561,2.736,2.088,1.848.7,3.889,1.513,3.889,4.009,0,2.208-1.752,4.009-5.017,4.009A8.181,8.181,0,0,1,225.578,265.429Z" fill="#fff"/>
        <path id="Path_52188" data-name="Path 52188" d="M242.258,249.251h3.217l5.856,17.689h-2.952l-1.488-5.04h-6.145l-1.512,5.04H236.4Zm-.864,10.465h4.825l-.7-2.376c-.6-1.921-1.127-3.889-1.655-5.881h-.12c-.5,2.017-1.057,3.96-1.633,5.881Z" fill="#fff"/>
        <path id="Path_52189" data-name="Path 52189" d="M253.418,253.739h2.256l.216,1.441h.072a6.7,6.7,0,0,1,4.08-1.777c3.336,0,5.209,2.664,5.209,6.721,0,4.536-2.712,7.129-5.689,7.129a5.444,5.444,0,0,1-3.48-1.488l.1,2.256v4.272h-2.76Zm8.977,6.433c0-2.761-.889-4.465-3.1-4.465a4.545,4.545,0,0,0-3.12,1.608v6.457a4.421,4.421,0,0,0,2.856,1.2C260.955,264.973,262.395,263.269,262.395,260.172Z" fill="#fff"/>
        <path id="Path_52190" data-name="Path 52190" d="M268.538,253.739h2.255l.217,1.441h.072a6.7,6.7,0,0,1,4.08-1.777c3.336,0,5.209,2.664,5.209,6.721,0,4.536-2.713,7.129-5.689,7.129a5.444,5.444,0,0,1-3.48-1.488l.1,2.256v4.272h-2.76Zm8.976,6.433c0-2.761-.888-4.465-3.1-4.465a4.545,4.545,0,0,0-3.12,1.608v6.457a4.421,4.421,0,0,0,2.856,1.2C276.074,264.973,277.514,263.269,277.514,260.172Z" fill="#fff"/>
      </g>
    </g>
  </g>
</svg>
