<svg xmlns="http://www.w3.org/2000/svg" xmlns:xlink="http://www.w3.org/1999/xlink" width="286" height="76" viewBox="0 0 286 76">
  <defs>
    <linearGradient id="linear-gradient" x1="0.699" y1="0.166" x2="0.292" y2="0.901" gradientUnits="objectBoundingBox">
      <stop offset="0" stop-color="#4898ff"/>
      <stop offset="1" stop-color="#1877f2"/>
    </linearGradient>
    <clipPath id="clip-path">
      <rect id="Rectangle_63052" data-name="Rectangle 63052" width="36" height="36" transform="translate(843 4978)" fill="#fff"/>
    </clipPath>
  </defs>
  <g id="Group_40548" data-name="Group 40548" transform="translate(-817 -4962)">
    <rect id="Rectangle_63030" data-name="Rectangle 63030" width="286" height="76" rx="3" transform="translate(817 4962)" fill="url(#linear-gradient)"/>
    <g id="Mask_Group_1098" data-name="Mask Group 1098" transform="translate(32 4)" clip-path="url(#clip-path)">
      <path id="Icon_awesome-facebook-f" data-name="Icon awesome-facebook-f" d="M18.626,19.125l.944-6.153h-5.9V8.979c0-1.683.825-3.324,3.469-3.324h2.684V.416A32.732,32.732,0,0,0,15.055,0c-4.862,0-8.04,2.947-8.04,8.282v4.69h-5.4v6.153h5.4V34h6.652V19.125Z" transform="translate(850.286 4979)" fill="#fff"/>
    </g>
    <path id="Path_52225" data-name="Path 52225" d="M-57.148,0h3.016V-8.242h7.072v-2.522h-7.072v-5.85h8.32v-2.548H-57.148Zm16.822.338a7.109,7.109,0,0,0,4.55-1.976h.1L-35.438,0h2.444V-8.606c0-3.8-1.638-6.058-5.2-6.058a10.953,10.953,0,0,0-5.772,1.872l1.118,2.028a7.864,7.864,0,0,1,4.134-1.456c2.106,0,2.7,1.456,2.73,3.12-5.954.65-8.554,2.236-8.554,5.3A3.951,3.951,0,0,0-40.326.338Zm.91-2.366c-1.274,0-2.236-.572-2.236-1.976,0-1.612,1.43-2.7,5.668-3.2v3.51A5.041,5.041,0,0,1-39.416-2.028ZM-22.932.338A7.083,7.083,0,0,0-18.278-1.43l-1.248-1.976a4.9,4.9,0,0,1-3.12,1.3c-2.366,0-4.03-2-4.03-5.044,0-3.016,1.716-5.044,4.134-5.044a3.736,3.736,0,0,1,2.548,1.118l1.482-1.95A6.14,6.14,0,0,0-22.7-14.664c-3.77,0-7.072,2.756-7.072,7.514S-26.806.338-22.932.338Zm12.9,0A8.676,8.676,0,0,0-5.2-1.17l-1.04-1.9A6.072,6.072,0,0,1-9.646-2c-2.47,0-4.186-1.638-4.42-4.368h9.282A7.751,7.751,0,0,0-4.628-7.9c0-4.03-2.054-6.76-5.85-6.76C-13.806-14.664-17-11.778-17-7.15-17-2.418-13.91.338-10.036.338ZM-14.092-8.45c.286-2.5,1.872-3.874,3.666-3.874,2.08,0,3.2,1.43,3.2,3.874ZM5.356.338c3.224,0,6.162-2.808,6.162-7.722,0-4.394-2.054-7.28-5.668-7.28a6.826,6.826,0,0,0-4.264,1.872l.1-2.444v-5.486H-1.3V0H1.04l.286-1.482H1.4A6.062,6.062,0,0,0,5.356.338Zm-.572-2.47a4.738,4.738,0,0,1-3.094-1.3v-6.994a4.876,4.876,0,0,1,3.38-1.742c2.392,0,3.354,1.846,3.354,4.836C8.424-3.978,6.864-2.132,4.784-2.132ZM20.774.338c3.536,0,6.734-2.73,6.734-7.488s-3.2-7.514-6.734-7.514S14.04-11.908,14.04-7.15,17.238.338,20.774.338Zm0-2.444c-2.236,0-3.64-2-3.64-5.044,0-3.016,1.4-5.044,3.64-5.044,2.262,0,3.666,2.028,3.666,5.044C24.44-4.108,23.036-2.106,20.774-2.106ZM36.738.338c3.536,0,6.734-2.73,6.734-7.488s-3.2-7.514-6.734-7.514S30-11.908,30-7.15,33.2.338,36.738.338Zm0-2.444c-2.236,0-3.64-2-3.64-5.044,0-3.016,1.4-5.044,3.64-5.044C39-12.194,40.4-10.166,40.4-7.15,40.4-4.108,39-2.106,36.738-2.106ZM46.982,0H49.92V-3.718l2.392-2.756L56.186,0h3.25L54.054-8.476,58.89-14.3H55.562L50.024-7.384h-.1V-20.722H46.982Z" transform="translate(986 5012)" fill="#fff"/>
  </g>
</svg>
