<svg xmlns="http://www.w3.org/2000/svg" width="100" height="100" viewBox="0 0 100 100">
  <g id="Group_40557" data-name="Group 40557" transform="translate(-360 -1326)">
    <rect id="Rectangle_63050" data-name="Rectangle 63050" width="100" height="100" rx="10" transform="translate(360 1326)" fill="#f2f2f2"/>
    <g id="Group_40573" data-name="Group 40573" transform="translate(380 1346.897)">
      <path id="Path_52215" data-name="Path 52215" d="M2,27.387a10.818,10.818,0,0,0,5.781,9.574c-1.987,6.323,3.974,12.1,8.671,11.2a5.323,5.323,0,0,0,5.419,5.419,5.4,5.4,0,0,0,4.155-1.987h21.5a5.262,5.262,0,0,0,5.058,3.613A5.435,5.435,0,0,0,58,49.787a5.323,5.323,0,0,0-5.419-5.419,5.262,5.262,0,0,0-5.058,3.613H27.29V38.948H42.1a5.262,5.262,0,0,0,5.058,3.613,5.435,5.435,0,0,0,5.419-5.419,5.323,5.323,0,0,0-5.419-5.419A5.262,5.262,0,0,0,42.1,35.335H27.29V24.5h7.587a5.262,5.262,0,0,0,5.058,3.613,5.435,5.435,0,0,0,5.419-5.419,5.323,5.323,0,0,0-5.419-5.419,5.262,5.262,0,0,0-5.058,3.613H27.29V13.839H45.716a5.262,5.262,0,0,0,5.058,3.613,5.435,5.435,0,0,0,5.419-5.419,5.323,5.323,0,0,0-5.419-5.419,5.506,5.506,0,0,0-5.058,3.613H27.29V8.419A5.323,5.323,0,0,0,21.871,3a5.154,5.154,0,0,0-5.058,3.613A8.846,8.846,0,0,0,7.781,17.994,10.337,10.337,0,0,0,2,27.387Zm45.161,8.129a1.806,1.806,0,0,1,0,3.613,1.81,1.81,0,0,1-1.806-1.806h0A1.81,1.81,0,0,1,47.161,35.516ZM39.935,21.065a1.943,1.943,0,0,1,1.806,1.806,1.943,1.943,0,0,1-1.806,1.806,1.81,1.81,0,0,1-1.806-1.806h0A1.81,1.81,0,0,1,39.935,21.065ZM50.774,10.226a1.943,1.943,0,0,1,1.806,1.806,1.806,1.806,0,1,1-3.613,0A1.943,1.943,0,0,1,50.774,10.226Zm1.806,37.935a1.806,1.806,0,1,1,0,3.613,1.81,1.81,0,0,1-1.806-1.806h0A1.81,1.81,0,0,1,52.581,48.161Z" transform="translate(0 0)" fill="#2a4445"/>
    </g>
  </g>
</svg>
