<svg xmlns="http://www.w3.org/2000/svg" xmlns:xlink="http://www.w3.org/1999/xlink" width="100" height="100" viewBox="0 0 100 100">
  <defs>
    <clipPath id="clip-path">
      <rect id="Rectangle_62510" data-name="Rectangle 62510" width="56" height="56" transform="translate(5949 1117)" fill="#fff" stroke="#707070" stroke-width="1"/>
    </clipPath>
  </defs>
  <g id="Group_40542" data-name="Group 40542" transform="translate(-360 -1326)">
    <rect id="Rectangle_63050" data-name="Rectangle 63050" width="100" height="100" rx="15" transform="translate(360 1326)" fill="#f2f2f2"/>
    <g id="Mask_Group_746" data-name="Mask Group 746" transform="translate(-5567 231)" clip-path="url(#clip-path)">
      <g id="coin-stack" transform="translate(5951.322 1128.248)">
        <g id="Group_39745" data-name="Group 39745" transform="translate(0 0)">
          <path id="Path_51724" data-name="Path 51724" d="M14.842,126.932a31.818,31.818,0,0,0,4.136-.265V112.274a31.841,31.841,0,0,0-4.136-.265C6.646,112.009,0,115.023,0,118.74v1.46C0,123.918,6.646,126.932,14.842,126.932Z" transform="translate(-0.001 -110.073)" fill="#2a4445"/>
          <path id="Path_51725" data-name="Path 51725" d="M14.842,222.744a31.873,31.873,0,0,0,4.136-.265V218.26a31.834,31.834,0,0,1-4.136.266c-7.155,0-13.126-2.3-14.529-5.353A3.283,3.283,0,0,0,0,214.553v1.46C0,219.73,6.646,222.744,14.842,222.744Z" transform="translate(-0.001 -198.37)" fill="#2a4445"/>
          <path id="Path_51726" data-name="Path 51726" d="M18.977,277.672v-.328a31.836,31.836,0,0,1-4.136.267c-7.155,0-13.126-2.3-14.529-5.353A3.282,3.282,0,0,0,0,273.637v1.46c0,3.718,6.645,6.731,14.841,6.731a31.523,31.523,0,0,0,4.69-.343,5.31,5.31,0,0,1-.554-2.353Z" transform="translate(0 -249.939)" fill="#2a4445"/>
          <path id="Path_51727" data-name="Path 51727" d="M183.08,22.379c-8.2,0-14.841,3.014-14.841,6.731v1.46c0,3.718,6.645,6.731,14.841,6.731s14.841-3.014,14.841-6.731V29.11C197.921,25.393,191.277,22.379,183.08,22.379Z" transform="translate(-146.84 -22.379)" fill="#2a4445"/>
          <path id="Path_51728" data-name="Path 51728" d="M183.08,128.9c-7.155,0-13.126-2.3-14.529-5.353a3.281,3.281,0,0,0-.312,1.379v1.46c0,3.718,6.645,6.731,14.841,6.731s14.841-3.014,14.841-6.731v-1.46a3.281,3.281,0,0,0-.312-1.379C196.207,126.6,190.235,128.9,183.08,128.9Z" transform="translate(-146.84 -110.676)" fill="#2a4445"/>
          <path id="Path_51729" data-name="Path 51729" d="M183.08,187.981c-7.155,0-13.126-2.3-14.529-5.353a3.281,3.281,0,0,0-.312,1.379v1.46c0,3.718,6.645,6.731,14.841,6.731s14.841-3.014,14.841-6.731v-1.46a3.282,3.282,0,0,0-.312-1.379C196.207,185.684,190.235,187.981,183.08,187.981Z" transform="translate(-146.84 -162.245)" fill="#2a4445"/>
          <path id="Path_51730" data-name="Path 51730" d="M183.08,250.254c-7.155,0-13.126-2.3-14.529-5.353a3.282,3.282,0,0,0-.312,1.379v1.46c0,3.718,6.645,6.731,14.841,6.731s14.841-3.014,14.841-6.731v-1.46a3.281,3.281,0,0,0-.312-1.379C196.207,247.957,190.235,250.254,183.08,250.254Z" transform="translate(-146.84 -216.597)" fill="#2a4445"/>
        </g>
      </g>
    </g>
  </g>
</svg>
