<svg xmlns="http://www.w3.org/2000/svg" xmlns:xlink="http://www.w3.org/1999/xlink" width="100" height="100" viewBox="0 0 100 100">
  <defs>
    <clipPath id="clip-path">
      <rect id="Rectangle_8" data-name="Rectangle 8" width="60" height="60" transform="translate(0.084 0.084)" fill="#fff" stroke="#707070" stroke-width="1"/>
    </clipPath>
    <clipPath id="clip-Data_Analysis">
      <rect width="100" height="100"/>
    </clipPath>
  </defs>
  <g id="Data_Analysis" data-name="Data Analysis" clip-path="url(#clip-Data_Analysis)">
    <g id="Group_17" data-name="Group 17" transform="translate(-1048 -1042)">
      <circle id="Ellipse_1" data-name="Ellipse 1" cx="50" cy="50" r="50" transform="translate(1048 1042)" fill="#2a4445"/>
      <g id="Mask_Group_4" data-name="Mask Group 4" transform="translate(1067.916 1061.916)" clip-path="url(#clip-path)">
        <g id="noun_Data_1997692" transform="translate(2.459 6.378)">
          <path id="Path_17" data-name="Path 17" d="M51.743,2.8H3.7A3.205,3.205,0,0,0,.5,6V39.051a3.2,3.2,0,0,0,3.2,3.2H19.325V46.1h-.413a1.654,1.654,0,0,0,0,3.307H36.533a1.654,1.654,0,0,0,0-3.307h-.413V42.255H51.744a3.2,3.2,0,0,0,3.2-3.2V6A3.208,3.208,0,0,0,51.743,2.8Zm.721,36.245a.725.725,0,0,1-.721.725H3.7a.725.725,0,0,1-.721-.725V6A.724.724,0,0,1,3.7,5.283H51.743A.724.724,0,0,1,52.464,6Z" transform="translate(-0.5 -2.804)" fill="#fff"/>
          <path id="Path_18" data-name="Path 18" d="M8.588,15.489h-3.3a1.652,1.652,0,0,0-1.654,1.652V27.948h6.61V17.141A1.653,1.653,0,0,0,8.588,15.489Z" transform="translate(1.697 6.093)" fill="#fff"/>
          <path id="Path_19" data-name="Path 19" d="M14.051,13.587h-3.3a1.654,1.654,0,0,0-1.654,1.652V29.282H15.7V15.239A1.655,1.655,0,0,0,14.051,13.587Z" transform="translate(5.528 4.759)" fill="#fff"/>
          <path id="Path_20" data-name="Path 20" d="M19.514,17.29h-3.3a1.655,1.655,0,0,0-1.654,1.652v7.743h6.61V18.942A1.656,1.656,0,0,0,19.514,17.29Z" transform="translate(9.359 7.356)" fill="#fff"/>
          <path id="Path_21" data-name="Path 21" d="M24.977,12.616h-3.3a1.655,1.655,0,0,0-1.654,1.652V29.963h6.61V14.268A1.655,1.655,0,0,0,24.977,12.616Z" transform="translate(13.191 4.078)" fill="#fff"/>
          <path id="Path_22" data-name="Path 22" d="M30.439,10.675h-3.3a1.653,1.653,0,0,0-1.654,1.652v19h6.61v-19A1.65,1.65,0,0,0,30.439,10.675Z" transform="translate(17.022 2.716)" fill="#fff"/>
          <path id="Path_23" data-name="Path 23" d="M6.392,18.189a1.983,1.983,0,0,0,1.982-1.984c0-.01,0-.024,0-.034l5.749-2a1.954,1.954,0,0,0,2.771.362l6.191,4.2a2.027,2.027,0,0,0-.083.538,1.982,1.982,0,1,0,3.814-.75l6.438-5.509a1.972,1.972,0,0,0,3.006-1.691.323.323,0,0,0-.005-.043l5.759-2.05a1.972,1.972,0,1,0-.424-1.21.324.324,0,0,0,.005.043l-5.759,2.05a1.977,1.977,0,0,0-3.391,1.963L26,17.58a1.941,1.941,0,0,0-2.229.126l-6.191-4.2a1.978,1.978,0,1,0-3.881-.538c0,.014,0,.024,0,.036L7.959,15a1.98,1.98,0,1,0-1.567,3.185Z" transform="translate(2.241 -0.541)" fill="#fff"/>
        </g>
      </g>
    </g>
  </g>
</svg>
