<?xml version="1.0" encoding="utf-8"?>
<!-- Generator: Adobe Illustrator 25.4.1, SVG Export Plug-In . SVG Version: 6.00 Build 0)  -->
<svg version="1.1" id="圖層_1" xmlns="http://www.w3.org/2000/svg" xmlns:xlink="http://www.w3.org/1999/xlink" x="0px" y="0px"
	 viewBox="0 0 404.6 200" style="enable-background:new 0 0 404.6 200;" xml:space="preserve">
<style type="text/css">
	.st0{fill-rule:evenodd;clip-rule:evenodd;}
	.st1{fill:url(#SVGID_1_);}
	.st2{fill:url(#SVGID_00000008109818116907179960000003046846924406326400_);}
	.st3{fill:url(#SVGID_00000058573359678342311370000004439995374677525658_);}
	.st4{fill:url(#SVGID_00000107577850572783682530000011159854799210907788_);}
	.st5{fill:none;}
	.st6{fill:url(#SVGID_00000018941108223953801610000018023832462140183186_);}
	.st7{fill:url(#SVGID_00000183948313846094795710000002504122071927061157_);}
	.st8{fill:url(#SVGID_00000109718735777982414490000009122638730211547529_);}
	.st9{fill:url(#SVGID_00000047745760042853686600000008955503190288220569_);}
	.st10{fill:url(#SVGID_00000044145798352022613670000017770374805920048574_);}
	.st11{fill:url(#SVGID_00000150083756124128092920000014504997141100446889_);}
	.st12{fill:url(#SVGID_00000070813076083103306450000004625488520090551963_);}
	.st13{fill:url(#SVGID_00000012435075885235551450000012558717138036040111_);}
	.st14{fill:url(#SVGID_00000064353286649156797760000014697615454588738433_);}
	.st15{fill:url(#SVGID_00000133509665874027745470000007841997220032984243_);}
	.st16{fill:url(#SVGID_00000044860650892828870320000006861788034636058530_);}
	.st17{fill:url(#SVGID_00000083087167720884237860000003612126374627169429_);}
	.st18{fill:url(#SVGID_00000106123594223053153500000001022752943264791446_);}
	.st19{fill:url(#SVGID_00000085968080809457597070000015670122057245607819_);}
	.st20{fill:url(#SVGID_00000052788952815601818200000016345142365934165162_);}
</style>
<g>
	<path class="st0" d="M380.3,21.3h3.8l6.3,9.9h3.9L387.7,21c3.4-0.4,6.1-2.1,6.1-6.3c0-4.4-2.6-6.6-8.1-6.6h-8.9v23.1h3.6v-9.9
		C380.4,21.3,380.3,21.3,380.3,21.3z M380.3,11.1h4.8c2.4,0,5.1,0.5,5.1,3.5c0,3.6-2.9,3.8-6.1,3.8h-3.8V11.1z"/>
	<path class="st0" d="M403.9,19.7c0,10.9-8.8,19.7-19.7,19.7c-10.9,0-19.7-8.8-19.7-19.7S373.3,0,384.2,0
		C395,0,403.9,8.8,403.9,19.7z M384.2,2.9c-9.3,0-16.8,7.5-16.8,16.8s7.5,16.8,16.8,16.8S401,29,401,19.7S393.4,2.9,384.2,2.9z"/>
</g>
<linearGradient id="SVGID_1_" gradientUnits="userSpaceOnUse" x1="11.7603" y1="169.3483" x2="11.7603" y2="169.3483">
	<stop  offset="0" style="stop-color:#646567"/>
	<stop  offset="1" style="stop-color:#48484A"/>
</linearGradient>
<path class="st1" d="M11.8,169.3"/>
<linearGradient id="SVGID_00000027605658715166075140000000832649059332762257_" gradientUnits="userSpaceOnUse" x1="0" y1="177.2443" x2="4.442648e-16" y2="169.9889">
	<stop  offset="0" style="stop-color:#646567"/>
	<stop  offset="1" style="stop-color:#48484A"/>
</linearGradient>
<path style="fill:url(#SVGID_00000027605658715166075140000000832649059332762257_);" d="M0,169.3v6.4V169.3z"/>
<linearGradient id="SVGID_00000002353713857811166180000004005028632392246407_" gradientUnits="userSpaceOnUse" x1="11.7603" y1="177.1765" x2="11.7603" y2="170.0272">
	<stop  offset="0" style="stop-color:#646567"/>
	<stop  offset="1" style="stop-color:#48484A"/>
</linearGradient>
<path style="fill:url(#SVGID_00000002353713857811166180000004005028632392246407_);" d="M11.8,175.7v-6.3V175.7z"/>
<linearGradient id="SVGID_00000031168494195831444110000002921768451356082862_" gradientUnits="userSpaceOnUse" x1="11.7603" y1="177.1765" x2="11.7603" y2="170.0272">
	<stop  offset="0" style="stop-color:#646567"/>
	<stop  offset="1" style="stop-color:#48484A"/>
</linearGradient>
<line style="fill:url(#SVGID_00000031168494195831444110000002921768451356082862_);" x1="11.8" y1="169.3" x2="11.8" y2="175.7"/>
<path class="st5" d="M159.6,138.1c5.5,0.5,8.5-2.4,8.6-8.4c0-0.5,0-1.3-0.2-2.2c-0.6-3.5-3.1-5.8-6.5-6.1c-4.2-0.3-6.8,1.3-7.9,5
	c-0.7,2.5-0.7,5.1,0.3,7.5C154.9,136.4,156.8,137.9,159.6,138.1z"/>
<path class="st5" d="M284.6,168.8c-4.6-0.1-7.8,2-8.6,6.4c-0.5,2.6-0.5,5.4,0,8c1,4.3,4,6.3,8.4,6.3c4.5,0,7.8-2.4,8.6-6.8
	c0.4-2.3,0.4-4.7,0-7C292.2,171.3,289,168.9,284.6,168.8z"/>
<path class="st5" d="M23.8,169.4l-12-0.1v6.4c5.8,0,11.6-0.1,12-0.1c1.9-0.2,3.1-1.4,3.1-3C26.9,171,25.7,169.5,23.8,169.4z"/>
<linearGradient id="SVGID_00000037694368554636911920000017202821870968169896_" gradientUnits="userSpaceOnUse" x1="69.9345" y1="194.9651" x2="69.9345" y2="55.5677" gradientTransform="matrix(1 0 0 -1 0 200)">
	<stop  offset="0" style="stop-color:#1093C8"/>
	<stop  offset="1" style="stop-color:#0C78AD"/>
</linearGradient>
<path style="fill:url(#SVGID_00000037694368554636911920000017202821870968169896_);" d="M96.2,101.7c0.8,0,1.6,0,2.4-0.1
	c5.4-1,10.5-2.8,15.5-5.2c28.6-13.9,34.6-54,11.9-76.1c-10.2-10-22.7-14-36.8-14c-28.7,0-88.5,0-89.2,0C0.6,7,1.6,8.2,2.1,8.8
	c8.5,10.2,26,31.1,27,32.4c16.8,0,35.6,0,52.4,0c3.8,0,7.6,0.1,11.2,1.8c8.3,3.9,10,13.4,3.6,19.8c-3.1,3.2-7.1,4.3-11.3,4.3
	c-15,0.1-30,0.1-45,0.1c-1.5,0-2.6,0.4-3.7,1.4C24.9,79.1,13.4,89.6,2,100.1c-0.7,0.6-1.2,1.8-1.2,2.8c-0.1,14.4,0,31.1-0.1,45.4
	c1.5,0,36.4,0,39.8,0c0-13.1,0-28.8,0-41.9c0-1.5,0-2.9,0-4.6c1.1,0,1.9,0,2.6-0.1C60.8,101.7,78.5,101.7,96.2,101.7z"/>
<linearGradient id="SVGID_00000103237012347579335630000015371459905642694806_" gradientUnits="userSpaceOnUse" x1="242.2" y1="194.9664" x2="242.2" y2="55.4246" gradientTransform="matrix(1 0 0 -1 0 200)">
	<stop  offset="0" style="stop-color:#1093C8"/>
	<stop  offset="1" style="stop-color:#0C78AD"/>
</linearGradient>
<path style="fill:url(#SVGID_00000103237012347579335630000015371459905642694806_);" d="M127.2,6.4c11.2,9.4,20.4,19.7,22.3,34.5
	c69.4,0,138.4,0,207.6,0c0-11.6,0-23,0.1-34.5C280.6,6.4,204.1,6.4,127.2,6.4z"/>
<linearGradient id="SVGID_00000119816337945646483260000018062344514884542877_" gradientUnits="userSpaceOnUse" x1="287.4" y1="194.9664" x2="287.4" y2="55.4246" gradientTransform="matrix(1 0 0 -1 0 200)">
	<stop  offset="0" style="stop-color:#1093C8"/>
	<stop  offset="1" style="stop-color:#0C78AD"/>
</linearGradient>
<path style="fill:url(#SVGID_00000119816337945646483260000018062344514884542877_);" d="M217.8,113.3c0,0.9,0,1.4-0.1,2
	c0,10.1,0.1,20.1,0,30.2c0,1.9,0,0.7,0,2.5c44.8,0,94.6,0,139.4,0c0-1.7,0-32.8,0-34.7c-44.8,0-92.1,0-136.9,0
	C219.5,113.3,218.8,113.3,217.8,113.3z"/>
<linearGradient id="SVGID_00000080904962457263260850000001063836379211051153_" gradientUnits="userSpaceOnUse" x1="287.45" y1="194.9664" x2="287.45" y2="55.4247" gradientTransform="matrix(1 0 0 -1 0 200)">
	<stop  offset="0" style="stop-color:#1093C8"/>
	<stop  offset="1" style="stop-color:#0C78AD"/>
</linearGradient>
<path style="fill:url(#SVGID_00000080904962457263260850000001063836379211051153_);" d="M295.5,93.6c10.6-9.1,39.2-33.5,39.3-33.6
	c-17.1,0-35.6-0.1-52.6,0c-0.9,0-1.9,0.5-2.6,1.1C267,71.7,240.9,94,240.1,94.7c0.9,0,35.6,0.1,52.6,0
	C293.7,94.7,294.8,94.2,295.5,93.6z"/>
<g>
	
		<linearGradient id="SVGID_00000146483222386604295550000015669924347625186708_" gradientUnits="userSpaceOnUse" x1="176.2829" y1="254.37" x2="176.2829" y2="114.8282">
		<stop  offset="0" style="stop-color:#1093C8"/>
		<stop  offset="1" style="stop-color:#0C78AD"/>
	</linearGradient>
	<path style="fill:url(#SVGID_00000146483222386604295550000015669924347625186708_);" d="M200.1,112.9c-0.4,1.3-2.8,10.5-4,14.9
		c-1.3-3.8-3.6-12.1-4.3-14.9c-1.2,0-8.4,0-9.2,0c-0.4,1.4-2.7,10.3-3.9,14.8c-3.1-12.7-12.6-18.3-24.1-14.6
		c-9.4,3-14,13.7-10.2,23.7c1.6,4.4,4.5,7.6,8.9,9.2c6.9,2.5,13.5,1.8,19.9-2.8c0.2,0.8,0.5,1.8,1.1,3.5c1.7,0,7.8,0,8.6,0
		c1-3.7,4-15,4.2-15.3c1.2,4.5,4,14.3,4.3,15.2c2,0,7,0,9,0c0.2-1,8.7-32.4,9.1-33.7C207.6,112.9,202.1,112.9,200.1,112.9z
		 M159.6,138.1c-2.8-0.2-4.7-1.7-5.7-4.2c-1-2.4-1-5-0.3-7.5c1.1-3.7,3.7-5.3,7.9-5c3.4,0.3,5.9,2.6,6.5,6.1
		c0.2,0.9,0.2,1.7,0.2,2.2C168.1,135.7,165.1,138.6,159.6,138.1z"/>
</g>
<linearGradient id="SVGID_00000028304069368610422590000006201092378899451011_" gradientUnits="userSpaceOnUse" x1="112.7" y1="194.9664" x2="112.7" y2="55.4246" gradientTransform="matrix(1 0 0 -1 0 200)">
	<stop  offset="0" style="stop-color:#1093C8"/>
	<stop  offset="1" style="stop-color:#0C78AD"/>
</linearGradient>
<path style="fill:url(#SVGID_00000028304069368610422590000006201092378899451011_);" d="M117.6,105.8c-11.6,6-24,5.5-36.6,5.4
	c7.7,12.4,23,36.5,23.3,37.1c12.2,0,27.9,0,40.1,0c-1.2-1.7-11.2-17.6-16-25.3C124.8,117.3,121.3,111.7,117.6,105.8z"/>
<linearGradient id="SVGID_00000031178804986582943190000011425067253623289005_" gradientUnits="userSpaceOnUse" x1="331.95" y1="155.5556" x2="331.95" y2="197.8152">
	<stop  offset="0" style="stop-color:#646567"/>
	<stop  offset="1" style="stop-color:#48484A"/>
</linearGradient>
<path style="fill:url(#SVGID_00000031178804986582943190000011425067253623289005_);" d="M340.2,159.1c-0.6,0.9-5.7,10.3-8.2,15
	c-0.4-0.7-0.7-1.2-0.9-1.9c-2.2-3.9-6.8-12.2-7.2-13.1c-3.7,0-10.2-0.1-13.7-0.1c0,1.7,0,29.4,0,39.7c1.5,0,7.3,0,11.8,0
	c0-0.1,0-20.2,0-20.7c0.4,0.6,1,1.7,1.3,2.3c2.4,4.4,8.2,14.7,8.6,15.4c0.3-0.6,4.8-8.4,6.5-11.5c1-1.8,3.2-5.9,3.5-6.4
	c0,0.7,0.1,15.8,0,21c1.4,0,9.6,0,11.8,0c-0.1-11.8,0-38,0-39.7C350.4,159.2,343.5,159.2,340.2,159.1z"/>
<g>
	
		<linearGradient id="SVGID_00000135663218769091464930000009647559484228202425_" gradientUnits="userSpaceOnUse" x1="106.582" y1="155.5556" x2="106.582" y2="197.8152">
		<stop  offset="0" style="stop-color:#646567"/>
		<stop  offset="1" style="stop-color:#48484A"/>
	</linearGradient>
	<path style="fill:url(#SVGID_00000135663218769091464930000009647559484228202425_);" d="M124.3,177.9c4.2-6.9,0.9-17.4-9.9-18.3
		c-8.5-0.7-18.8-0.3-27.3-0.3c0,2.6,0,8,0,10v0.3v3.8v0.3c0,3.2,0,24.1,0,25.1c3.9-0.1,22.9,0.1,27.3-0.2
		c9.6-0.9,14.4-10.3,9.9-18.8C124.1,179.3,124,178.4,124.3,177.9z M99.1,169.6c4.9,0,9.8,0.1,12.2,0.1c1.3,0,2.9,0.3,2.9,1.8
		c0,1.7-1.5,1.8-2.9,1.9c-0.3,0-0.7,0-1,0c-1.8,0-6.5,0-11.2,0V169.6z M112.1,188.2c-4.2,0.2-8.6,0.1-13,0.1c0-1.6,0-2.9,0-4.4
		c4.5,0,8.8-0.1,13.1,0c1.2,0,2.2,0.7,2.2,2.2C114.4,187.7,113,188.2,112.1,188.2z"/>
</g>
<linearGradient id="SVGID_00000176017095850843244660000001916560914070901166_" gradientUnits="userSpaceOnUse" x1="147.85" y1="155.5556" x2="147.85" y2="197.8152">
	<stop  offset="0" style="stop-color:#646567"/>
	<stop  offset="1" style="stop-color:#48484A"/>
</linearGradient>
<path style="fill:url(#SVGID_00000176017095850843244660000001916560914070901166_);" d="M142.8,169.6c0.9,0,16,0,21.8,0.1
	c0-1.4,0-8.6,0-10.5c-10,0-23.6,0-33.6,0c0,1.2,0,0.5,0,1.9c0,12,0,36.6,0,37.8c10,0,23.7,0,33.7,0c0-1.3,0-8.8,0-10.5
	c-5.8,0-13.7,0-19.5,0c-0.7,0-1.4,0-2.2,0c0-1.6,0-3,0-4.6c3.4,0,18.4,0,21.7,0c0-1.1,0-9.4,0-10.3c-0.7,0-21.1-0.1-21.9-0.1
	C142.8,172.1,142.8,171,142.8,169.6z"/>
<g>
	
		<linearGradient id="SVGID_00000057142724552318295720000007967020865369854884_" gradientUnits="userSpaceOnUse" x1="284.4987" y1="155.5556" x2="284.4987" y2="197.8152">
		<stop  offset="0" style="stop-color:#646567"/>
		<stop  offset="1" style="stop-color:#48484A"/>
	</linearGradient>
	<path style="fill:url(#SVGID_00000057142724552318295720000007967020865369854884_);" d="M284.7,158.4c-12.3-0.1-20.9,8.1-21,20.4
		c-0.2,12.5,8,21,20.4,21.2c12.5,0.2,21.1-8.1,21.2-20.6C305.4,167,297.1,158.5,284.7,158.4z M293,182.7c-0.8,4.4-4.1,6.8-8.6,6.8
		c-4.4,0-7.4-2-8.4-6.3c-0.5-2.6-0.5-5.4,0-8c0.8-4.4,4-6.5,8.6-6.4c4.4,0.1,7.6,2.5,8.4,6.9C293.4,178,293.4,180.4,293,182.7z"/>
</g>
<linearGradient id="SVGID_00000036237496816806628590000017030467638273739437_" gradientUnits="userSpaceOnUse" x1="62.65" y1="155.5556" x2="62.65" y2="197.8152">
	<stop  offset="0" style="stop-color:#646567"/>
	<stop  offset="1" style="stop-color:#48484A"/>
</linearGradient>
<path style="fill:url(#SVGID_00000036237496816806628590000017030467638273739437_);" d="M42.8,169.5c3.8,0,22.8,0,23.2,0
	c-5.5,4.4-21.4,17.3-23.2,18.8c0,2.4,0,9.2,0,10.5c11.7,0,27.8,0,39.5,0c0-1.5,0-8.3,0-10.5c-5.8,0.1-21,0-22,0
	c5.6-4.8,16.6-14.2,22.2-18.8c0-4.4,0-2.3,0-8c0-0.2,0-0.4,0-2.3c-11.7,0-28,0-39.7,0C42.8,159.8,42.8,168.6,42.8,169.5z"/>
<g>
	
		<linearGradient id="SVGID_00000045588795872627555710000016952422426324638102_" gradientUnits="userSpaceOnUse" x1="20.15" y1="155.5556" x2="20.15" y2="197.8152">
		<stop  offset="0" style="stop-color:#646567"/>
		<stop  offset="1" style="stop-color:#48484A"/>
	</linearGradient>
	<path style="fill:url(#SVGID_00000045588795872627555710000016952422426324638102_);" d="M31.4,184.7c0.5-0.3,0.9-0.6,1.3-0.9
		c4.5-3,6.8-8.4,5.7-13.7c-1.4-6.8-6.6-10.9-14.1-11c-6.8,0-22.9,0-24.3,0c0,0.7,0,36,0,39.6c0.8,0,9.3,0,11.7,0c0-3.2,0-9.3,0-12.6
		c2.5,0,6.4,0,8.7,0c0.4,0.8,7.2,11.9,7.8,12.7c2.5-0.1,9.1,0,12.1,0C38.6,196.3,33.8,188.6,31.4,184.7z M23.8,175.6
		c-0.4,0-6.2,0-12,0.1v-6.4l12,0.1c1.9,0.1,3.1,1.6,3.1,3.2C26.9,174.2,25.7,175.4,23.8,175.6z"/>
</g>
<linearGradient id="SVGID_00000178179675888489650820000009974733375324272291_" gradientUnits="userSpaceOnUse" x1="241.5089" y1="155.5556" x2="241.5089" y2="197.8152">
	<stop  offset="0" style="stop-color:#646567"/>
	<stop  offset="1" style="stop-color:#48484A"/>
</linearGradient>
<path style="fill:url(#SVGID_00000178179675888489650820000009974733375324272291_);" d="M244.6,168.8c2.7,0,5.1,1,7.1,3
	c2.2-2,4.4-3.9,6.4-5.8c1.7-1.6,1.7-2-0.2-3.3c-7-5-14.7-5.6-22.6-2.4c-7.4,3-10.7,9.1-11.5,16.8c-1.1,10.5,4.7,19.5,14.3,22.1
	c4.6,1.2,9.2,1.1,13.8-0.3c2.8-0.9,5.3-2.2,7.4-4.4c-2-2.3-4-4.5-5.9-6.8c-1-1.2-1.7-1.2-2.9-0.2c-2.9,2.5-6.4,2.7-9.8,1.4
	c-3.4-1.2-4.8-4.1-5.2-7.5c-0.1-1.6-0.1-3.3,0.1-4.9C236.3,171.6,239.7,168.8,244.6,168.8z"/>
<linearGradient id="SVGID_00000005953453186870031680000008327594050260522937_" gradientUnits="userSpaceOnUse" x1="187.95" y1="155.5556" x2="187.95" y2="197.8152">
	<stop  offset="0" style="stop-color:#646567"/>
	<stop  offset="1" style="stop-color:#48484A"/>
</linearGradient>
<path style="fill:url(#SVGID_00000005953453186870031680000008327594050260522937_);" d="M187.1,159.1c-5.5,0-13.1,0.1-18.6,0
	c0,1.8,0,7.1,0,10.4c3,0,10.6,0,13.8,0c0,1.1,0,1.8,0,2.5c0,8.2,0,26.5,0,27.2c1,0,10,0,11.8,0c0-5.7,0-23.6,0-29.6
	c3.9,0,9.7-0.1,13.3,0c0-1.5,0-8.2,0-10.5C201.5,159.2,193,159.1,187.1,159.1z"/>
<linearGradient id="SVGID_00000129899567725702948410000003792331139088504749_" gradientUnits="userSpaceOnUse" x1="215.25" y1="155.5556" x2="215.25" y2="197.8152">
	<stop  offset="0" style="stop-color:#646567"/>
	<stop  offset="1" style="stop-color:#48484A"/>
</linearGradient>
<path style="fill:url(#SVGID_00000129899567725702948410000003792331139088504749_);" d="M215.3,187.6c-3.6,0-5.9,2.4-5.9,6
	c0,3.6,2.3,6,5.8,6c3.6,0,5.9-2.4,5.9-6C221.1,190,218.8,187.6,215.3,187.6z"/>
</svg>
