<svg xmlns="http://www.w3.org/2000/svg" xmlns:xlink="http://www.w3.org/1999/xlink" width="24" height="24" viewBox="0 0 24 24">
  <defs>
    <clipPath id="clip-path">
      <rect id="Rectangle_57428" data-name="Rectangle 57428" width="24" height="24" transform="translate(-21757 -8954)" fill="#005cc3" stroke="#707070" stroke-width="1"/>
    </clipPath>
    <clipPath id="clip-USDT">
      <rect width="24" height="24"/>
    </clipPath>
  </defs>
  <g id="USDT" clip-path="url(#clip-USDT)">
    <g id="跑马灯_喇叭" transform="translate(21757 8954)" clip-path="url(#clip-path)">
      <g id="check_1" data-name="check 1" transform="translate(-21757 -8954)">
        <path id="Path_52166" data-name="Path 52166" d="M13,1A12,12,0,1,0,25,13,12,12,0,0,0,13,1Zm6.168,8.592-7.992,7.984a.733.733,0,0,1-.432.224.885.885,0,0,1-.152.016.353.353,0,0,1-.128-.016.733.733,0,0,1-.432-.224l-3.2-3.192a.8.8,0,0,1,0-1.128.806.806,0,0,1,1.136,0l2.64,2.64,7.424-7.432a.806.806,0,0,1,1.136,0,.8.8,0,0,1,0,1.128Z" transform="translate(-1 -1)" fill="#005cc3"/>
      </g>
    </g>
  </g>
</svg>
