<svg xmlns="http://www.w3.org/2000/svg" width="100" height="100" viewBox="0 0 100 100">
  <g id="Group_40558" data-name="Group 40558" transform="translate(-360 -1326)">
    <rect id="Rectangle_63050" data-name="Rectangle 63050" width="100" height="100" rx="10" transform="translate(360 1326)" fill="#f2f2f2"/>
    <path id="Exclusion_161" data-name="Exclusion 161" d="M-7254.815,611h-28.654V599.6h5.084v-4.451a6.031,6.031,0,0,0,4.177-2.233,6.031,6.031,0,0,0,1.265-4.563,16.549,16.549,0,0,1-7.269-3.819,16.549,16.549,0,0,1-4.529-6.848,6.329,6.329,0,0,1-.352-2.081v-1.14l-4.127-.653a2.546,2.546,0,0,1-2.112-2.094l-1.632-9.732a2.561,2.561,0,0,1,.846-2.345,2.546,2.546,0,0,1,1.666-.62,2.542,2.542,0,0,1,.773.12l4.587,1.47V555h31.857v5.615l4.587-1.47a2.545,2.545,0,0,1,.777-.122,2.541,2.541,0,0,1,1.665.621,2.558,2.558,0,0,1,.846,2.345l-1.634,9.732a2.543,2.543,0,0,1-2.114,2.094l-4.125.653v1.256a6.3,6.3,0,0,1-.375,2.154,16.56,16.56,0,0,1-4.539,6.727,16.563,16.563,0,0,1-7.2,3.751,6.036,6.036,0,0,0,1.265,4.565,6.042,6.042,0,0,0,4.177,2.231V599.6h5.088V611Zm-22.467-7.836v4.276H-7261v-4.276Zm6.512-30.486h0l-2.077.608a3.95,3.95,0,0,0,.976,2.207,2.725,2.725,0,0,0,2.094.9,3.1,3.1,0,0,0,2.621-1.327,5.6,5.6,0,0,0,.912-3.357,5.284,5.284,0,0,0-.943-3.262,2.917,2.917,0,0,0-2.447-1.248,2.452,2.452,0,0,0-.942.192v-1.982h3.518v-2.174h-5.692v7.147h2.174v-.145a1.3,1.3,0,0,1,.287-.513.874.874,0,0,1,.655-.351,1.038,1.038,0,0,1,.9.672,3.979,3.979,0,0,1,.318,1.664,3.713,3.713,0,0,1-.4,1.885,1.123,1.123,0,0,1-.959.624.809.809,0,0,1-.7-.448,2.736,2.736,0,0,1-.29-1.087Zm-9.175,1.567h0l-.448,1.616a2.822,2.822,0,0,0,1.678.527,3.377,3.377,0,0,0,3.007-1.728,11.7,11.7,0,0,0,1.311-5.914,8.375,8.375,0,0,0-.833-4.078,2.8,2.8,0,0,0-2.429-1.614,2.915,2.915,0,0,0-2.59,1.536,6.312,6.312,0,0,0-.816,3.293,5,5,0,0,0,.944,3.262,2.7,2.7,0,0,0,2.142,1.135,5.981,5.981,0,0,0,1.2-.24,6.59,6.59,0,0,1-.271,1.168,1.764,1.764,0,0,1-1.664,1.327,2.659,2.659,0,0,1-1.23-.289Zm20.287-3.276a1.7,1.7,0,0,0-1.424.736,3.216,3.216,0,0,0-.542,1.966,2.885,2.885,0,0,0,.591,1.887,1.661,1.661,0,0,0,1.375.608,1.776,1.776,0,0,0,1.375-.608,2.942,2.942,0,0,0,.543-1.887,3.338,3.338,0,0,0-.511-2,1.766,1.766,0,0,0-1.408-.7Zm1.2-6.364h0l-6.986,9.065,1.182.959,7-9.049-1.2-.976Zm10.588-4.309a1.3,1.3,0,0,0-.389.061l-4.973,1.6v11.225l3.928-.622a1.273,1.273,0,0,0,1.054-1.045l1.635-9.73a1.276,1.276,0,0,0-.268-1.016,1.283,1.283,0,0,0-.94-.469Zm-42.571,0-.018,0a1.269,1.269,0,0,0-.963.445,1.274,1.274,0,0,0-.287,1.038l1.632,9.73a1.276,1.276,0,0,0,1.058,1.047l3.926.62V561.953l-4.973-1.6A1.3,1.3,0,0,0-7290.443,560.3Zm27.411,2.727a1.738,1.738,0,0,0-1.455.719,3.41,3.41,0,0,0-.511,1.966,2.8,2.8,0,0,0,.575,1.84,1.765,1.765,0,0,0,1.391.606,1.629,1.629,0,0,0,1.408-.67,3.223,3.223,0,0,0,.51-1.775,3.223,3.223,0,0,0-.51-2.03,1.729,1.729,0,0,0-1.408-.655Zm3.373,11.606h0a.341.341,0,0,1-.334-.209,2.151,2.151,0,0,1-.1-.75,3.025,3.025,0,0,1,.1-.911.343.343,0,0,1,.334-.256c.127,0,.224.081.288.24a3.031,3.031,0,0,1,.1.928,2.04,2.04,0,0,1-.114.736A.289.289,0,0,1-7259.659,574.63Zm-17.97-4.316a.945.945,0,0,1-.912-.544,3.862,3.862,0,0,1-.352-1.887,5.248,5.248,0,0,1,.3-2.158,1.03,1.03,0,0,1,.928-.641.976.976,0,0,1,.831.624,5.572,5.572,0,0,1,.271,2.222c0,.22,0,.461-.015.736a.577.577,0,0,0,0,.192,2.67,2.67,0,0,1-.272.976A.885.885,0,0,1-7277.628,570.314Zm14.6-3.694h0a.352.352,0,0,1-.32-.223,1.53,1.53,0,0,1-.112-.688,3.186,3.186,0,0,1,.081-.864.36.36,0,0,1,.352-.287c.126,0,.224.086.288.256a3.077,3.077,0,0,1,.1.9,1.726,1.726,0,0,1-.111.688A.29.29,0,0,1-7263.032,566.621Z" transform="translate(7679.163 793)" fill="#2a4445"/>
  </g>
</svg>
