<svg xmlns="http://www.w3.org/2000/svg" xmlns:xlink="http://www.w3.org/1999/xlink" width="286" height="76" viewBox="0 0 286 76">
  <defs>
    <clipPath id="clip-path">
      <rect id="Rectangle_63030" data-name="Rectangle 63030" width="286" height="76" rx="3" transform="translate(817 4962)" fill="#fec053"/>
    </clipPath>
    <radialGradient id="radial-gradient" cx="0.074" cy="0.5" r="0.867" gradientTransform="matrix(1, 0, 0, -1, 0, 1.718)" gradientUnits="objectBoundingBox">
      <stop offset="0" stop-color="#fec053"/>
      <stop offset="0.327" stop-color="#f2203e"/>
      <stop offset="0.648" stop-color="#b729a8"/>
      <stop offset="1" stop-color="#5342d6"/>
    </radialGradient>
  </defs>
  <g id="Group_40549" data-name="Group 40549" transform="translate(-817 -4962)">
    <g id="Mask_Group_1099" data-name="Mask Group 1099" clip-path="url(#clip-path)">
      <path id="Path_52207" data-name="Path 52207" d="M23.2,102.048,229.5,308.356l-55.04,55.04L-31.844,157.088Z" transform="translate(725.94 4904.962) rotate(-45)" fill="url(#radial-gradient)"/>
    </g>
    <g id="telegram-new-2019-seeklogo.com" transform="translate(872 4982.927)">
      <rect id="Rectangle_62239" data-name="Rectangle 62239" width="36" height="36" transform="translate(0 0.073)" fill="none"/>
      <path id="Icon_simple-instagram" data-name="Icon simple-instagram" d="M15.234,0C11.1,0,10.579.019,8.954.091A11.233,11.233,0,0,0,5.256.8a7.46,7.46,0,0,0-2.7,1.757A7.433,7.433,0,0,0,.8,5.256a11.2,11.2,0,0,0-.708,3.7C.015,10.579,0,11.1,0,15.234s.019,4.655.091,6.28a11.24,11.24,0,0,0,.708,3.7,7.471,7.471,0,0,0,1.757,2.7,7.449,7.449,0,0,0,2.7,1.757,11.247,11.247,0,0,0,3.7.708c1.625.076,2.142.091,6.28.091s4.655-.019,6.28-.091a11.273,11.273,0,0,0,3.7-.708,7.785,7.785,0,0,0,4.456-4.456,11.24,11.24,0,0,0,.708-3.7c.076-1.625.091-2.142.091-6.28s-.019-4.655-.091-6.28a11.266,11.266,0,0,0-.708-3.7,7.477,7.477,0,0,0-1.757-2.7A7.422,7.422,0,0,0,25.212.8a11.207,11.207,0,0,0-3.7-.708C19.889.015,19.372,0,15.234,0Zm0,2.742c4.066,0,4.551.02,6.157.09a8.393,8.393,0,0,1,2.827.527A5.013,5.013,0,0,1,27.11,6.25a8.411,8.411,0,0,1,.524,2.827c.072,1.607.089,2.09.089,6.157s-.019,4.551-.094,6.157a8.573,8.573,0,0,1-.534,2.827,4.837,4.837,0,0,1-1.141,1.754A4.753,4.753,0,0,1,24.2,27.11a8.473,8.473,0,0,1-2.837.524c-1.617.072-2.093.089-6.168.089s-4.552-.019-6.168-.094a8.638,8.638,0,0,1-2.839-.534,4.718,4.718,0,0,1-1.751-1.141A4.626,4.626,0,0,1,3.3,24.2a8.645,8.645,0,0,1-.533-2.837c-.057-1.6-.077-2.093-.077-6.149s.02-4.552.077-6.171A8.636,8.636,0,0,1,3.3,6.208,4.516,4.516,0,0,1,4.438,4.455a4.506,4.506,0,0,1,1.751-1.14,8.432,8.432,0,0,1,2.82-.534C10.627,2.723,11.1,2.7,15.177,2.7l.057.038Zm0,4.669a7.823,7.823,0,1,0,7.823,7.823A7.822,7.822,0,0,0,15.234,7.411Zm0,12.9a5.078,5.078,0,1,1,5.078-5.078A5.077,5.077,0,0,1,15.234,20.312ZM25.194,7.1a1.828,1.828,0,1,1-1.828-1.827A1.829,1.829,0,0,1,25.194,7.1Z" transform="translate(2.766 2.839)" fill="#fff"/>
    </g>
    <path id="Path_52226" data-name="Path 52226" d="M-60.06,0h3.016V-19.162H-60.06Zm7.774,0h2.99V-10.14c1.248-1.274,2.158-1.95,3.484-1.95,1.69,0,2.418.988,2.418,3.458V0h2.99V-9c0-3.64-1.352-5.668-4.394-5.668a6.814,6.814,0,0,0-4.732,2.34h-.078l-.234-1.976h-2.444Zm20.1.338c3.536,0,5.434-1.95,5.434-4.342,0-2.7-2.21-3.588-4.212-4.342-1.56-.572-2.964-1.04-2.964-2.262,0-.988.728-1.768,2.314-1.768a5.342,5.342,0,0,1,3.172,1.248l1.4-1.846a7.451,7.451,0,0,0-4.628-1.69c-3.172,0-5.1,1.794-5.1,4.186,0,2.418,2.106,3.432,4.03,4.16,1.534.6,3.146,1.17,3.146,2.47,0,1.092-.806,1.924-2.522,1.924a6.48,6.48,0,0,1-4.056-1.638l-1.4,1.924A8.856,8.856,0,0,0-32.188.338Zm12.844,0a9.149,9.149,0,0,0,2.808-.52l-.546-2.21a4.263,4.263,0,0,1-1.534.338c-1.482,0-2.08-.884-2.08-2.6v-7.254h3.718V-14.3H-20.7v-3.952h-2.5L-23.53-14.3l-2.236.156v2.236h2.08V-4.68C-23.686-1.664-22.568.338-19.344.338Zm8.242,0a7.109,7.109,0,0,0,4.55-1.976h.1L-6.214,0H-3.77V-8.606c0-3.8-1.638-6.058-5.2-6.058a10.953,10.953,0,0,0-5.772,1.872l1.118,2.028A7.864,7.864,0,0,1-9.49-12.22c2.106,0,2.7,1.456,2.73,3.12-5.954.65-8.554,2.236-8.554,5.3A3.951,3.951,0,0,0-11.1.338Zm.91-2.366c-1.274,0-2.236-.572-2.236-1.976,0-1.612,1.43-2.7,5.668-3.2v3.51A5.041,5.041,0,0,1-10.192-2.028ZM5.356,6.422c4.576,0,7.488-2.236,7.488-4.992,0-2.444-1.768-3.484-5.148-3.484H5.07c-1.82,0-2.392-.546-2.392-1.4a1.858,1.858,0,0,1,.78-1.508,4.971,4.971,0,0,0,2,.442c2.99,0,5.356-1.794,5.356-4.914a3.866,3.866,0,0,0-.936-2.626h2.73V-14.3H7.54a5.963,5.963,0,0,0-2.08-.364c-2.964,0-5.538,1.9-5.538,5.122A4.847,4.847,0,0,0,1.82-5.72v.1A3.484,3.484,0,0,0,.208-2.964,2.629,2.629,0,0,0,1.508-.6v.13a3.778,3.778,0,0,0-2.08,3.12C-.572,5.148,1.924,6.422,5.356,6.422Zm.1-12.87a2.8,2.8,0,0,1-2.7-3.094,2.714,2.714,0,0,1,2.7-3.016,2.728,2.728,0,0,1,2.7,3.016A2.8,2.8,0,0,1,5.46-6.448ZM5.8,4.446c-2.366,0-3.822-.832-3.822-2.236A2.572,2.572,0,0,1,3.2.13,9.091,9.091,0,0,0,5.122.338H7.28C9.022.338,9.958.7,9.958,1.9,9.958,3.224,8.294,4.446,5.8,4.446ZM15.5,0h2.99V-8.918c.884-2.262,2.288-3.068,3.458-3.068a4.231,4.231,0,0,1,1.43.234l.546-2.6a3.557,3.557,0,0,0-1.612-.312c-1.534,0-3.042,1.092-4.056,2.938h-.078L17.94-14.3H15.5ZM28.782.338a7.109,7.109,0,0,0,4.55-1.976h.1L33.67,0h2.444V-8.606c0-3.8-1.638-6.058-5.2-6.058a10.953,10.953,0,0,0-5.772,1.872l1.118,2.028a7.864,7.864,0,0,1,4.134-1.456c2.106,0,2.7,1.456,2.73,3.12-5.954.65-8.554,2.236-8.554,5.3A3.951,3.951,0,0,0,28.782.338Zm.91-2.366c-1.274,0-2.236-.572-2.236-1.976,0-1.612,1.43-2.7,5.668-3.2v3.51A5.041,5.041,0,0,1,29.692-2.028ZM40.352,0h2.99V-10.14q1.755-1.95,3.2-1.95c1.638,0,2.392.988,2.392,3.458V0h2.99V-10.14c1.2-1.3,2.236-1.95,3.224-1.95,1.612,0,2.392.988,2.392,3.458V0h2.99V-9c0-3.64-1.4-5.668-4.394-5.668-1.794,0-3.25,1.118-4.654,2.626a3.817,3.817,0,0,0-3.952-2.626,6.229,6.229,0,0,0-4.42,2.366H43.03l-.234-2H40.352Z" transform="translate(986 5012)" fill="#fff"/>
  </g>
</svg>
