<svg xmlns="http://www.w3.org/2000/svg" xmlns:xlink="http://www.w3.org/1999/xlink" width="100" height="100" viewBox="0 0 100 100">
  <defs>
    <clipPath id="clip-path">
      <rect id="Rectangle_63051" data-name="Rectangle 63051" width="53.244" height="48.029" fill="#2a4445"/>
    </clipPath>
  </defs>
  <g id="Group_40544" data-name="Group 40544" transform="translate(-360 -1326)">
    <rect id="Rectangle_63050" data-name="Rectangle 63050" width="100" height="100" rx="15" transform="translate(360 1326)" fill="#f2f2f2"/>
    <g id="Group_40546" data-name="Group 40546" transform="translate(383.378 1351.985)">
      <g id="Group_40546-2" data-name="Group 40546" transform="translate(0 0)" clip-path="url(#clip-path)">
        <path id="Path_52205" data-name="Path 52205" d="M50.441,13.278H2.8A2.8,2.8,0,0,0,0,16.08V39.9a2.8,2.8,0,0,0,2.8,2.8H50.441a2.8,2.8,0,0,0,2.8-2.8V16.08a2.8,2.8,0,0,0-2.8-2.8M15.055,35.9H7.692a1.751,1.751,0,0,1-1.313-2.91l4.666-5.278c.626-.691,1.573-1.732,1.573-2.386a2.13,2.13,0,0,0-.412-1.456,1.027,1.027,0,0,0-.752-.283c-.628,0-1.5.433-1.5,1.247a1.751,1.751,0,1,1-3.5,0,4.9,4.9,0,0,1,5-4.75,4.5,4.5,0,0,1,3.274,1.355,5.39,5.39,0,0,1,1.393,3.887c0,2.008-1.436,3.587-2.484,4.741L11.573,32.4h3.482a1.751,1.751,0,1,1,0,3.5M27,32.38v1.767a1.751,1.751,0,0,1-3.5,0v-1.59H18.4a1.751,1.751,0,0,1-1.376-2.836l6.849-8.69c.022-.028.055-.041.078-.066a1.676,1.676,0,0,1,.273-.233,1.642,1.642,0,0,1,.266-.179,1.68,1.68,0,0,1,.3-.1,1.647,1.647,0,0,1,.359-.073c.034,0,.063-.02.1-.02a1.55,1.55,0,0,1,.213.043,1.636,1.636,0,0,1,.356.071,1.72,1.72,0,0,1,.317.16,1.894,1.894,0,0,1,.2.1c.028.022.041.055.066.078a1.756,1.756,0,0,1,.234.275,1.652,1.652,0,0,1,.178.265,1.694,1.694,0,0,1,.1.3,1.656,1.656,0,0,1,.073.356c0,.035.02.064.02.1V29.23a1.732,1.732,0,0,1,0,3.15m8.017-3.759a1.811,1.811,0,0,1-1.248.5,1.746,1.746,0,0,1-1.232-.5,1.823,1.823,0,0,1-.52-1.247,1.382,1.382,0,0,1,.042-.336,1.53,1.53,0,0,1,.1-.336,1.723,1.723,0,0,1,.154-.294,1.358,1.358,0,0,1,.224-.266,1.8,1.8,0,0,1,2.48,0,1.469,1.469,0,0,1,.21.266,1.332,1.332,0,0,1,.168.294,3.38,3.38,0,0,1,.1.336,3.018,3.018,0,0,1,.027.336,1.807,1.807,0,0,1-.5,1.247m12.156-5.927L42.228,34.725a1.752,1.752,0,1,1-3.241-1.331l3.951-9.615H39.371a1.751,1.751,0,0,1,0-3.5h6.18a1.752,1.752,0,0,1,1.62,2.417m-23.677,6.36V27.166l-1.488,1.887Z" transform="translate(0 5.326)" fill="#2a4445"/>
        <path id="Path_52206" data-name="Path 52206" d="M17.839,7.1a1.713,1.713,0,0,0-2.64-.639L7.263,12.693a1.751,1.751,0,1,0,2.162,2.756l7.931-6.225a1.761,1.761,0,0,0,.5-2.088L17.839,7.1M23.977,0a4.554,4.554,0,1,0,4.554,4.554A4.559,4.559,0,0,0,23.977,0M40.16,12.277,32.754,6.462a1.712,1.712,0,0,0-2.64.639l-.014.035a1.761,1.761,0,0,0,.5,2.088L38,15.033a1.752,1.752,0,0,0,2.163-2.756" transform="translate(2.645 -0.001)" fill="#2a4445"/>
      </g>
    </g>
  </g>
</svg>
