<svg xmlns="http://www.w3.org/2000/svg" width="100" height="100" viewBox="0 0 100 100">
  <g id="Group_40543" data-name="Group 40543" transform="translate(-360 -1326)">
    <rect id="Rectangle_63050" data-name="Rectangle 63050" width="100" height="100" rx="15" transform="translate(360 1326)" fill="#f2f2f2"/>
    <path id="Icon_awesome-user-friends" data-name="Icon awesome-user-friends" d="M17.886,23.117A10.433,10.433,0,1,0,7.452,12.683,10.428,10.428,0,0,0,17.886,23.117ZM25.04,26.1h-.773a14.4,14.4,0,0,1-12.762,0h-.773A10.734,10.734,0,0,0,0,36.829v2.683a4.473,4.473,0,0,0,4.471,4.471H31.3a4.473,4.473,0,0,0,4.471-4.471V36.829A10.734,10.734,0,0,0,25.04,26.1Zm19.674-2.981a8.943,8.943,0,1,0-8.943-8.943A8.945,8.945,0,0,0,44.714,23.117ZM49.185,26.1h-.354a11.747,11.747,0,0,1-8.235,0h-.354a10.347,10.347,0,0,0-5.189,1.435,13.633,13.633,0,0,1,3.7,9.3v3.577c0,.2-.047.4-.056.6H55.147a4.473,4.473,0,0,0,4.471-4.471A10.428,10.428,0,0,0,49.185,26.1Z" transform="translate(380.19 1352.884)" fill="#2a4445"/>
  </g>
</svg>
