<svg xmlns="http://www.w3.org/2000/svg" xmlns:xlink="http://www.w3.org/1999/xlink" width="100" height="100" viewBox="0 0 100 100">
  <defs>
    <clipPath id="clip-path">
      <rect id="Rectangle_12" data-name="Rectangle 12" width="60" height="60" transform="translate(0.292 0.292)" fill="#fff" stroke="#707070" stroke-width="1"/>
    </clipPath>
    <clipPath id="clip-Exclusive">
      <rect width="100" height="100"/>
    </clipPath>
  </defs>
  <g id="Exclusive" clip-path="url(#clip-Exclusive)">
    <g id="Group_14" data-name="Group 14" transform="translate(-1384 -1042)">
      <circle id="Ellipse_1" data-name="Ellipse 1" cx="50" cy="50" r="50" transform="translate(1384 1042)" fill="#2a4445"/>
      <g id="Mask_Group_8" data-name="Mask Group 8" transform="translate(1403.708 1061.708)" clip-path="url(#clip-path)">
        <g id="noun_exclusive_3883978" transform="translate(2.676 4.499)">
          <g id="Group_13" data-name="Group 13" transform="translate(0 0)">
            <path id="Path_38" data-name="Path 38" d="M59.273,7.4a4.1,4.1,0,0,0-3,2.881,4.175,4.175,0,0,0,1.267,4.263A8.3,8.3,0,0,1,50.919,18,8.151,8.151,0,0,1,43.6,13.391a4.094,4.094,0,1,0-5.819-4.551,4.128,4.128,0,0,0,2.477,4.724,8.136,8.136,0,0,1-13.942.922,3.984,3.984,0,0,0,1.383-3,4.144,4.144,0,1,0-4.494,4.09L28.221,28.2a1.635,1.635,0,0,0,1.555,1.037H54.261A1.692,1.692,0,0,0,55.816,28.2l5.012-12.674a4.071,4.071,0,0,0,3.629-4.09A4.257,4.257,0,0,0,59.273,7.4Z" transform="translate(-9.658 -5.631)" fill="#fff"/>
            <path id="Path_39" data-name="Path 39" d="M2.722,76.609a1.2,1.2,0,0,0,.23,1.671l8.526,6.395a1.2,1.2,0,0,0,1.671-.23l3.457-4.609L6.178,72Z" transform="translate(-2.479 -33.765)" fill="#fff"/>
            <path id="Path_40" data-name="Path 40" d="M51.848,53.309l-7.777,2.42v.518a4.969,4.969,0,0,1-3.917,4.609l-.518.115a49.222,49.222,0,0,1-8.7,1.095l-2.362.115a1.379,1.379,0,0,1-1.44-1.383,1.426,1.426,0,0,1,1.383-1.5l2.362-.115a48.137,48.137,0,0,0,8.181-1.037l.518-.115a2.146,2.146,0,0,0,1.671-1.959,2.271,2.271,0,0,0-.576-1.555,2.421,2.421,0,0,0-1.5-.691l-12.5-.4a6.218,6.218,0,0,0-3.86,1.152L12.5,62.065l10.658,8.008,10.485.979a6.985,6.985,0,0,0,5.07-1.5L54.095,57.514a2.3,2.3,0,0,0,.922-1.786,2.384,2.384,0,0,0-.691-1.9A2.5,2.5,0,0,0,51.848,53.309Z" transform="translate(-6.727 -25.789)" fill="#fff"/>
          </g>
        </g>
      </g>
    </g>
  </g>
</svg>
