<svg xmlns="http://www.w3.org/2000/svg" xmlns:xlink="http://www.w3.org/1999/xlink" width="65" height="65" viewBox="0 0 65 65">
  <defs>
    <clipPath id="clip-top">
      <rect width="65" height="65"/>
    </clipPath>
  </defs>
  <g id="top" clip-path="url(#clip-top)">
    <circle id="Ellipse_6313" data-name="Ellipse 6313" cx="24.5" cy="24.5" r="24.5" transform="translate(8 8)" fill="#fff"/>
    <path id="Path_52139" data-name="Path 52139" d="M60.32,14.389a32.432,32.432,0,0,0-45.932.289,32.431,32.431,0,0,0,.289,45.932A32.479,32.479,0,1,0,60.32,14.389Zm-3.178,31.56a2.2,2.2,0,0,1-1.517.65,1.967,1.967,0,0,1-1.517-.65L37.5,29.41,21.032,45.949a2.2,2.2,0,1,1-3.105-3.105L35.982,24.788a2.321,2.321,0,0,1,3.105,0L57.143,42.843A2.321,2.321,0,0,1,57.143,45.949Z" transform="translate(-4.998 -5)" fill="#005cc3"/>
  </g>
</svg>
