<svg xmlns="http://www.w3.org/2000/svg" xmlns:xlink="http://www.w3.org/1999/xlink" width="65" height="65" viewBox="0 0 65 65">
  <defs>
    <clipPath id="clip-top">
      <rect width="65" height="65"/>
    </clipPath>
  </defs>
  <g id="top" clip-path="url(#clip-top)">
    <circle id="Ellipse_6313" data-name="Ellipse 6313" cx="24.5" cy="24.5" r="24.5" transform="translate(8 8)" fill="#fff"/>
    <g id="Group_40399" data-name="Group 40399">
      <path id="Path_51297" data-name="Path 51297" d="M100.94,17.483a32.489,32.489,0,1,0,33.293,35.055c1.349-21.217-16.4-35.948-33.294-35.053Zm.94,13.066a3.264,3.264,0,0,1,2.406.958L117.53,44.815a3.25,3.25,0,1,1-4.609,4.583l-10.939-11.01-10.7,10.7a3.252,3.252,0,0,1-4.609,0,3.286,3.286,0,0,1,0-4.607L99.677,31.508a3.251,3.251,0,0,1,2.2-.958Zm0,15.954a3.271,3.271,0,0,1,2.406.952L117.53,60.794a3.247,3.247,0,0,1-4.609,4.575l-10.94-11-10.7,10.692a3.256,3.256,0,0,1-4.609-4.6l13.009-13a3.248,3.248,0,0,1,2.2-.952Z" transform="translate(-69.306 -17.447)" fill="#14a88f"/>
    </g>
  </g>
</svg>
