<svg xmlns="http://www.w3.org/2000/svg" xmlns:xlink="http://www.w3.org/1999/xlink" width="24" height="24" viewBox="0 0 24 24">
  <defs>
    <clipPath id="clip-path">
      <rect id="Rectangle_62177" data-name="Rectangle 62177" width="24" height="24" transform="translate(776 412)" fill="#fff" stroke="#707070" stroke-width="1"/>
    </clipPath>
    <clipPath id="clip-LINE">
      <rect width="24" height="24"/>
    </clipPath>
  </defs>
  <g id="LINE" clip-path="url(#clip-LINE)">
    <g id="Mask_Group_661" data-name="Mask Group 661" transform="translate(-776 -412)" clip-path="url(#clip-path)">
      <g id="line-messenger" transform="translate(776.849 413.563)">
        <path id="Path_51283" data-name="Path 51283" d="M61.074,62.576c6.159,0,11.151,4,11.151,8.929A7.631,7.631,0,0,1,70.561,76.2a2.31,2.31,0,0,1-.206.258l-.007.007a9.668,9.668,0,0,1-1.213,1.21c-3.084,2.85-8.16,6.244-8.829,5.72-.582-.455.959-2.681-.819-3.051-.124-.014-.248-.03-.371-.047h0c-5.224-.742-9.19-4.4-9.19-8.792C49.923,66.574,54.916,62.576,61.074,62.576Z" transform="translate(-49.923 -62.576)" fill="#3ace01" fill-rule="evenodd"/>
        <path id="Path_51284" data-name="Path 51284" d="M101.457,146.364h2.249a.583.583,0,0,0,.582-.582v-.049a.583.583,0,0,0-.582-.582h-1.619v-3.683a.583.583,0,0,0-.582-.582h-.049a.583.583,0,0,0-.582.582v4.313A.583.583,0,0,0,101.457,146.364Zm13.936-2.7v-.049a.583.583,0,0,0-.582-.582h-1.619v-.921h1.619a.583.583,0,0,0,.582-.582v-.048a.583.583,0,0,0-.582-.582h-2.249a.583.583,0,0,0-.582.582v4.313a.583.583,0,0,0,.582.582h2.249a.583.583,0,0,0,.582-.582v-.049a.583.583,0,0,0-.582-.582h-1.619v-.921h1.619A.583.583,0,0,0,115.393,143.66Zm-4.325,2.53h0a.58.58,0,0,0,.168-.408v-4.313a.583.583,0,0,0-.582-.582h-.049a.583.583,0,0,0-.582.582V144l-2.1-2.82a.583.583,0,0,0-.5-.294h-.049a.583.583,0,0,0-.582.582v4.313a.583.583,0,0,0,.582.582h.049a.583.583,0,0,0,.582-.582V143.2l2.117,2.892a.588.588,0,0,0,.043.058h0a.488.488,0,0,0,.226.167.576.576,0,0,0,.221.044h.049a.577.577,0,0,0,.272-.068A.409.409,0,0,0,111.068,146.19Zm-5.729.173h.049a.583.583,0,0,0,.582-.582v-4.313a.583.583,0,0,0-.582-.582h-.049a.583.583,0,0,0-.582.582v4.313A.583.583,0,0,0,105.338,146.364Z" transform="translate(-96.775 -134.586)" fill="#fff" fill-rule="evenodd"/>
      </g>
    </g>
  </g>
</svg>
