<svg xmlns="http://www.w3.org/2000/svg" width="100" height="100" viewBox="0 0 100 100">
  <g id="Group_40559" data-name="Group 40559" transform="translate(-360 -1326)">
    <rect id="Rectangle_63050" data-name="Rectangle 63050" width="100" height="100" rx="10" transform="translate(360 1326)" fill="#f2f2f2"/>
    <g id="Group_40574" data-name="Group 40574" transform="translate(381.217 1347.566)">
      <path id="Path_52218" data-name="Path 52218" d="M29.976,40.953A14.976,14.976,0,1,0,15,25.976,14.976,14.976,0,0,0,29.976,40.953Zm4.976-13.631a.881.881,0,0,0-.249.781l1.03,5.853-5.28-2.744a.881.881,0,0,0-.819,0L24.383,34l.983-5.859a.881.881,0,0,0-.256-.78l-4.277-4.133,5.883-.881a.881.881,0,0,0,.661-.485l2.609-5.343,2.656,5.326a.881.881,0,0,0,.666.479l5.888.827Z" transform="translate(-1.246 -1.258)" fill="#2a4445"/>
      <path id="Path_52219" data-name="Path 52219" d="M11.111,32.127v8.431a1.762,1.762,0,0,0,1.762,1.762l4.066.007L12.92,54.4A.881.881,0,0,0,14.1,55.484l5.618-2.408,3.1,3.1a.883.883,0,0,0,1.447-.316l2.884-7.687.327.327a1.768,1.768,0,0,0,2.5,0l.328-.328,2.884,7.688a.881.881,0,0,0,1.448.313l3.1-3.1,5.618,2.408a.881.881,0,0,0,1.183-1.088L40.524,42.329l4.064-.009a1.762,1.762,0,0,0,1.762-1.762V32.134l6.167-6.167a1.77,1.77,0,0,0,0-2.5L46.35,17.345V8.861A1.762,1.762,0,0,0,44.588,7.1H36.145L29.979.933a1.812,1.812,0,0,0-2.5,0L21.322,7.1H12.873a1.762,1.762,0,0,0-1.762,1.762v8.487l-6.052,6.07A1.757,1.757,0,0,0,5.033,25.9Zm1.266-13.552a1.789,1.789,0,0,0,.5-1.231V8.861h8.448a1.762,1.762,0,0,0,1.242-.514l6.172-6.167L34.9,8.348a1.762,1.762,0,0,0,1.237.514h8.448v8.484a1.8,1.8,0,0,0,.516,1.25l6.167,6.126L45.1,30.888a1.762,1.762,0,0,0-.516,1.24v8.431l-5.214.011h0l-3.235.007a1.762,1.762,0,0,0-1.242.514l-6.172,6.167-1.3-1.3L22.564,41.09a1.762,1.762,0,0,0-1.24-.514l-3.235-.007h0l-5.216-.011V32.127a1.773,1.773,0,0,0-.5-1.233L6.3,24.669Z" transform="translate(0 0)" fill="#2a4445"/>
    </g>
  </g>
</svg>
