<svg xmlns="http://www.w3.org/2000/svg" xmlns:xlink="http://www.w3.org/1999/xlink" width="100" height="100" viewBox="0 0 100 100">
  <defs>
    <clipPath id="clip-path">
      <rect id="Rectangle_7" data-name="Rectangle 7" width="60" height="60" fill="#fff" stroke="#707070" stroke-width="1"/>
    </clipPath>
    <clipPath id="clip-Safety">
      <rect width="100" height="100"/>
    </clipPath>
  </defs>
  <g id="Safety" clip-path="url(#clip-Safety)">
    <g id="Group_40510" data-name="Group 40510" transform="translate(-712 -1042)">
      <path id="Path_52140" data-name="Path 52140" d="M50,0A50,50,0,1,1,0,50,50,50,0,0,1,50,0Z" transform="translate(712 1042)" fill="#02448e"/>
      <g id="Mask_Group_3" data-name="Mask Group 3" transform="translate(732 1062)" clip-path="url(#clip-path)">
        <g id="Group_10" data-name="Group 10" transform="translate(4.96 2.518)">
          <path id="Path_13" data-name="Path 13" d="M54.258,8.8a1.522,1.522,0,0,0-1.4-1.516C44.869,6.524,40.379,2.908,40.32,2.85a1.5,1.5,0,0,0-1.924,0c-.058.058-4.549,3.674-12.6,4.432A1.569,1.569,0,0,0,24.4,8.8c0,20.469,13.763,26.65,14.346,26.942a2.072,2.072,0,0,0,.583.117,1.725,1.725,0,0,0,.583-.117C40.5,35.449,54.258,29.267,54.258,8.8ZM39.329,26.351a7.669,7.669,0,1,1,7.639-7.7A7.628,7.628,0,0,1,39.329,26.351Z" transform="translate(-14.015 -2.5)" fill="#fff"/>
          <path id="Path_14" data-name="Path 14" d="M48.825,25.513l-2.916,2.916-1.166-1.166a1.361,1.361,0,0,0-1.924,1.924l2.1,2.1a1.408,1.408,0,0,0,1.983,0l3.907-3.907a1.373,1.373,0,0,0,0-1.924A1.507,1.507,0,0,0,48.825,25.513Z" transform="translate(-21.528 -11.926)" fill="#fff"/>
          <path id="Path_15" data-name="Path 15" d="M71.986,44.107A42.116,42.116,0,0,1,70.12,48.6a5.4,5.4,0,0,1-.467,4.549,7.846,7.846,0,0,1-.816,1.283,47.313,47.313,0,0,1-3.091,3.616c-.058.117-.175.175-.233.292a.965.965,0,0,1-1.166.175.894.894,0,0,1-.175-1.341l.292-.292a22.814,22.814,0,0,0,3.616-4.49c1.166-2.274.408-3.791-.758-4.432a2.067,2.067,0,0,0-2.857.525,48.367,48.367,0,0,1-3.674,4.549,41.061,41.061,0,0,0-3.907,5.015,23.761,23.761,0,0,0-2.449,9.505c-.117,1.983-.175,4.257-.233,5.6a1.245,1.245,0,0,0,1.225,1.283h7.989a1.232,1.232,0,0,0,1.225-1.225V70.932a1.561,1.561,0,0,1,.7-1.341,38.378,38.378,0,0,0,7-6.065c3.266-3.791,4.432-15.045,4.607-18.37C77.176,41.774,72.919,41.016,71.986,44.107Z" transform="translate(-26.436 -19.031)" fill="#fff"/>
          <path id="Path_16" data-name="Path 16" d="M26.774,57.923a41.059,41.059,0,0,0-3.907-5.015,40.559,40.559,0,0,1-3.674-4.549,2.076,2.076,0,0,0-2.857-.525c-1.108.641-1.866,2.158-.758,4.432a28.173,28.173,0,0,0,3.616,4.49l.292.292a.9.9,0,0,1-.175,1.341.977.977,0,0,1-1.166-.175c-.058-.117-.175-.175-.233-.292a47.317,47.317,0,0,1-3.091-3.616A11.467,11.467,0,0,1,14,53.025a5.624,5.624,0,0,1-.467-4.549,47.824,47.824,0,0,1-1.866-4.49,2.588,2.588,0,0,0-5.073.991C6.771,48.3,7.938,59.556,11.2,63.347a42.823,42.823,0,0,0,7,6.065,1.561,1.561,0,0,1,.7,1.341v2.274a1.232,1.232,0,0,0,1.225,1.225h7.989a1.21,1.21,0,0,0,1.225-1.283c-.058-1.4-.117-3.616-.233-5.6A22.126,22.126,0,0,0,26.774,57.923Z" transform="translate(-6.591 -18.968)" fill="#fff"/>
        </g>
      </g>
    </g>
  </g>
</svg>
