<svg xmlns="http://www.w3.org/2000/svg" width="100" height="100" viewBox="0 0 100 100">
  <g id="Group_40560" data-name="Group 40560" transform="translate(-360 -1326)">
    <rect id="Rectangle_63050" data-name="Rectangle 63050" width="100" height="100" rx="10" transform="translate(360 1326)" fill="#f2f2f2"/>
    <g id="Group_40406" data-name="Group 40406" transform="translate(381.898 1347.899)">
      <g id="tether-1" transform="translate(0.102 0.102)">
        <path id="path0_fill" d="M28,0A28,28,0,1,1,0,28,28,28,0,0,1,28,0Z" fill="#2a4445"/>
        <g id="Vector_1_" transform="translate(11.335 14.198)">
          <path id="path1_fill" d="M-167.867,376.412V372.2h9.614v-6.4h-26.175v6.4h9.614v4.208c-7.809.361-13.687,1.907-13.687,3.76s5.877,3.4,13.687,3.76v13.46h6.954v-13.46c7.8-.361,13.664-1.907,13.664-3.76S-160.065,376.771-167.867,376.412Zm0,6.381c-.2,0-1.2.071-3.447.071-1.8,0-3.055-.046-3.5-.071h0c-6.9-.305-12.055-1.507-12.055-2.943s5.149-2.637,12.055-2.943v4.673c.456.031,1.741.109,3.53.109,2.143,0,3.217-.087,3.421-.109V376.9c6.891.305,12.032,1.507,12.032,2.943s-5.157,2.637-12.04,2.95" transform="translate(188.5 -365.8)" fill="#fff"/>
        </g>
      </g>
      <rect id="Rectangle_62251" data-name="Rectangle 62251" width="56" height="56" transform="translate(0.101 0.101)" fill="none"/>
    </g>
  </g>
</svg>
