<svg xmlns="http://www.w3.org/2000/svg" xmlns:xlink="http://www.w3.org/1999/xlink" width="24" height="24" viewBox="0 0 24 24">
  <defs>
    <clipPath id="clip-path">
      <rect id="Rectangle_61535" data-name="Rectangle 61535" width="24" height="24" transform="translate(0 0)" fill="none"/>
    </clipPath>
    <clipPath id="clip-WeChat">
      <rect width="24" height="24"/>
    </clipPath>
  </defs>
  <g id="WeChat" clip-path="url(#clip-WeChat)">
    <g id="Group_39030" data-name="Group 39030" transform="translate(198.017 -434.749)">
      <g id="Group_36408" data-name="Group 36408" transform="translate(-198.017 434.749)" clip-path="url(#clip-path)">
        <g id="wechat-2" data-name="wechat" transform="translate(0.764 2.921)">
          <path id="Path_50946" data-name="Path 50946" d="M36.863,33.967a5.3,5.3,0,0,0,2.356-4.277c0-3.117-3.008-5.69-6.778-5.69S25.7,26.537,25.7,29.654s3.008,5.654,6.741,5.654a8.8,8.8,0,0,0,2.211-.29c.036-.036.109-.036.217-.036a.7.7,0,0,1,.362.109l1.486.87c.036.036.036.036.109.036a.234.234,0,0,0,.217-.217c0-.036-.036-.109-.036-.145a8.853,8.853,0,0,1-.254-1.16V34.33A.282.282,0,0,1,36.863,33.967Zm-6.669-5.147a.906.906,0,1,1,.906-.906A.9.9,0,0,1,30.194,28.821Zm4.494,0a.906.906,0,1,1,.906-.906A.876.876,0,0,1,34.689,28.821Z" transform="translate(-16.748 -17.838)" fill="#2e3233"/>
          <path id="Path_50947" data-name="Path 50947" d="M16.694,12.727h.471C16.513,9.5,13.142,7,9.119,7,4.661,7.036,1,10.045,1,13.778a6.214,6.214,0,0,0,2.827,5.11.538.538,0,0,1,.217.471c0,.036-.036.109-.036.145-.145.507-.362,1.341-.362,1.377-.109.072-.109.109-.109.217a.259.259,0,0,0,.29.254c.036,0,.109-.036.145-.036L5.748,20.3a1.506,1.506,0,0,1,.471-.109,2.044,2.044,0,0,0,.254.036,9.149,9.149,0,0,0,2.646.362H9.59a6.13,6.13,0,0,1-.254-1.631C9.336,15.409,12.6,12.727,16.694,12.727Zm-4.857-2.211A1.09,1.09,0,0,1,12.924,11.6a1.087,1.087,0,1,1-2.175,0A1.09,1.09,0,0,1,11.837,10.516ZM6.4,12.727a1.09,1.09,0,0,1-1.087-1.087,1.087,1.087,0,1,1,2.175,0A1.09,1.09,0,0,1,6.4,12.727Z" transform="translate(-1 -7)" fill="#9de60b"/>
        </g>
      </g>
    </g>
  </g>
</svg>
